# xmcd CD database file
#
# Track frame offsets:
#	150
#	10305
#	28298
#	46259
#	72895
#	88807
#	101854
#
# Disc length: 1705 seconds
#
# Revision: 0
# Processed by: cddbd v1.5.2PL0 Copyright (c) Steve Scherf et al.
# Submitted via: CDex 1.70beta2
#
DISCID=5b06a707
DTITLE=The Rolling Blues Boys - Promotion
DYEAR=2009
DGENRE=Blues
TTITLE0=Looking Back
TTITLE1=Miss You
TTITLE2=Pretty Woman
TTITLE3=Life Is Hard
TTITLE4=Down To Mexico 
TTITLE5=Fire
TTITLE6=Moonchild
EXTD=YEAR: 2009
EXTT0=
EXTT1=
EXTT2=
EXTT3=
EXTT4=
EXTT5=
EXTT6=
PLAYORDER=
